# xmcd
#
# Track frame offsets:
#	150
#	16129
#	29166
#	43537
#	56036
#	70828
#	83459
#	96603
#	108864
#	121947
#	134348
#	147495
#	157006
#	169519
#	180566
#	193023
#	205502
#	219684
#	232982
#	245644
#	258180
#	270878
#	282230
#	295361
#
# Disc length: 4104 seconds
# Revision: 0
# Processed by: cddbd v1.5.2PL0 Copyright (c) Steve Scherf et al.
# Submitted via: dBpowerAMP V12.0
#
DISCID=5d100618
DTITLE=BD Blues - 16 Memphis Slim CD1 1940-1952
DYEAR=2011
DGENRE=Blues
TTITLE0=Beer Drinking Woman
TTITLE1=Diggin My Potatoes N°2
TTITLE2=Grinder Man Blues
TTITLE3=Whiskey and Gin Blues
TTITLE4=Lend Me Your Love
TTITLE5=Rockin' the House
TTITLE6=(Sometimes I Feel Like A) Motherless Child
TTITLE7=Harlem Bound
TTITLE8=Messin Around
TTITLE9=Blue and Lonesome
TTITLE10=Nobody Loves Me (Everyday I Have the Blues)
TTITLE11=If You Live That Life
TTITLE12=Slims Boogie
TTITLE13=Having Fun
TTITLE14=Mother Earth
TTITLE15=Trouble Trouble (Misery)
TTITLE16=My Baby (Left Me)
TTITLE17=The Question
TTITLE18=Train is Comin
TTITLE19=Drivin Me Mad
TTITLE20=No Mail Blues
TTITLE21=Blue Evening
TTITLE22=Tia Juana
TTITLE23=Living the Life I Love
EXTD=
EXTT0=
EXTT1=
EXTT2=
EXTT3=
EXTT4=
EXTT5=
EXTT6=
EXTT7=
EXTT8=
EXTT9=
EXTT10=
EXTT11=
EXTT12=
EXTT13=
EXTT14=
EXTT15=
EXTT16=
EXTT17=
EXTT18=
EXTT19=
EXTT20=
EXTT21=
EXTT22=
EXTT23=
PLAYORDER=
